<svg xmlns="http://www.w3.org/2000/svg" viewBox="0 0 1440 900" font-family="Inter, system-ui, sans-serif">
  <rect width="1440" height="900" fill="#FAFAF7"/>
  <!-- shell nav -->
  <line x1="0" y1="72" x2="1440" y2="72" stroke="#E5E7EB" stroke-width="1"/>
  <text x="120" y="46" font-size="15" font-weight="600" fill="#171717">Contract Studio</text>
  <text x="280" y="46" font-size="14" font-weight="600" fill="#171717">대시보드</text>
  <line x1="280" y1="56" x2="338" y2="56" stroke="#1E5B3A" stroke-width="2"/>
  <text x="358" y="46" font-size="14" fill="#6B7280">스튜디오</text>
  <!-- title row -->
  <text x="120" y="156" font-size="32" font-weight="600" fill="#171717">최근 문서</text>
  <rect x="1054" y="128" width="120" height="40" fill="#1E5B3A"/>
  <text x="1114" y="154" font-size="14" fill="#FFFFFF" text-anchor="middle">새 문서</text>
  <rect x="1186" y="128" width="178" height="40" fill="none" stroke="#D1D5DB" stroke-width="1"/>
  <text x="1275" y="154" font-size="14" fill="#171717" text-anchor="middle">계약서 업로드  ⌄</text>
  <!-- tabs row -->
  <line x1="120" y1="232" x2="1320" y2="232" stroke="#E5E7EB" stroke-width="1"/>
  <text x="120" y="220" font-size="14" font-weight="600" fill="#171717">모든 문서</text>
  <line x1="120" y1="232" x2="194" y2="232" stroke="#1E5B3A" stroke-width="2"/>
  <text x="220" y="220" font-size="14" fill="#6B7280">즐겨찾기</text>
  <!-- grid 3 cols x 2 rows -->
  <!-- row 1 -->
  <rect x="120" y="264" width="384" height="252" fill="#FFFFFF" stroke="#E5E7EB" stroke-width="1"/>
  <rect x="120" y="264" width="384" height="156" fill="#F6F4EE"/>
  <line x1="120" y1="420" x2="504" y2="420" stroke="#E5E7EB" stroke-width="1"/>
  <text x="140" y="450" font-size="14" font-weight="600" fill="#171717">용역계약서 초안 ·····</text>
  <circle cx="140" cy="478" r="4" fill="#2F7C58"/>
  <text x="156" y="482" font-size="12" fill="#6B7280">진행 중</text>
  <text x="484" y="482" font-size="12" fill="#6B7280" text-anchor="end">수정일 2026.05.16</text>
  <rect x="528" y="264" width="384" height="252" fill="#FFFFFF" stroke="#E5E7EB" stroke-width="1"/>
  <rect x="528" y="264" width="384" height="156" fill="#F6F4EE"/>
  <line x1="528" y1="420" x2="912" y2="420" stroke="#E5E7EB" stroke-width="1"/>
  <text x="548" y="450" font-size="14" font-weight="600" fill="#171717">위·수탁 계약서 ·······</text>
  <circle cx="548" cy="478" r="4" fill="#AA7B31"/>
  <text x="564" y="482" font-size="12" fill="#6B7280">검토 대기</text>
  <text x="892" y="482" font-size="12" fill="#6B7280" text-anchor="end">수정일 2026.05.16</text>
  <rect x="936" y="264" width="384" height="252" fill="#FFFFFF" stroke="#E5E7EB" stroke-width="1"/>
  <rect x="936" y="264" width="384" height="156" fill="#F6F4EE"/>
  <line x1="936" y1="420" x2="1320" y2="420" stroke="#E5E7EB" stroke-width="1"/>
  <text x="956" y="450" font-size="14" font-weight="600" fill="#171717">비밀유지계약서 ·······</text>
  <circle cx="956" cy="478" r="4" fill="#2F7C58"/>
  <text x="972" y="482" font-size="12" fill="#6B7280">진행 중</text>
  <text x="1300" y="482" font-size="12" fill="#6B7280" text-anchor="end">수정일 2026.05.16</text>
  <!-- row 2 -->
  <rect x="120" y="540" width="384" height="252" fill="#FFFFFF" stroke="#E5E7EB" stroke-width="1"/>
  <rect x="120" y="540" width="384" height="156" fill="#F6F4EE"/>
  <line x1="120" y1="696" x2="504" y2="696" stroke="#E5E7EB" stroke-width="1"/>
  <text x="140" y="726" font-size="14" font-weight="600" fill="#171717">SaaS 이용약관 ········</text>
  <circle cx="140" cy="754" r="4" fill="#6B7280"/>
  <text x="156" y="758" font-size="12" fill="#6B7280">초안</text>
  <text x="484" y="758" font-size="12" fill="#6B7280" text-anchor="end">수정일 2026.05.16</text>
  <rect x="528" y="540" width="384" height="252" fill="#FFFFFF" stroke="#E5E7EB" stroke-width="1"/>
  <rect x="528" y="540" width="384" height="156" fill="#F6F4EE"/>
  <line x1="528" y1="696" x2="912" y2="696" stroke="#E5E7EB" stroke-width="1"/>
  <text x="548" y="726" font-size="14" font-weight="600" fill="#171717">투자계약서 부속서류 ··</text>
  <circle cx="548" cy="754" r="4" fill="#2F7C58"/>
  <text x="564" y="758" font-size="12" fill="#6B7280">진행 중</text>
  <text x="892" y="758" font-size="12" fill="#6B7280" text-anchor="end">수정일 2026.05.16</text>
  <rect x="936" y="540" width="384" height="252" fill="#FFFFFF" stroke="#E5E7EB" stroke-width="1"/>
  <rect x="936" y="540" width="384" height="156" fill="#F6F4EE"/>
  <line x1="936" y1="696" x2="1320" y2="696" stroke="#E5E7EB" stroke-width="1"/>
  <text x="956" y="726" font-size="14" font-weight="600" fill="#171717">파트너십 약정서 ·····</text>
  <circle cx="956" cy="754" r="4" fill="#6B7280"/>
  <text x="972" y="758" font-size="12" fill="#6B7280">초안</text>
  <text x="1300" y="758" font-size="12" fill="#6B7280" text-anchor="end">수정일 2026.05.16</text>
</svg>
